<?xml version="1.0" standalone="no"?>
<!DOCTYPE svg PUBLIC "-//W3C//DTD SVG 20010904//EN"
 "http://www.w3.org/TR/2001/REC-SVG-20010904/DTD/svg10.dtd">
<svg version="1.0" xmlns="http://www.w3.org/2000/svg"
 width="320.000000pt" height="320.000000pt" viewBox="0 0 320.000000 320.000000"
 preserveAspectRatio="xMidYMid meet">

<g transform="translate(0.000000,320.000000) scale(0.100000,-0.100000)"
fill="#000000" stroke="none">
<path d="M2547 2687 c-25 -28 -95 -117 -156 -197 -61 -80 -120 -156 -131 -170
-22 -28 -25 -20 51 -115 269 -332 290 -816 53 -1173 -261 -392 -749 -552
-1185 -388 -232 87 -433 266 -543 483 -41 81 -80 189 -91 251 -4 23 -9 42 -12
42 -20 0 -82 -25 -74 -29 6 -4 -14 -6 -44 -6 -30 1 -52 -2 -49 -6 2 -4 -3 -10
-12 -13 -23 -9 -36 -7 -30 3 4 5 -3 7 -15 4 -13 -4 -17 -8 -9 -13 6 -4 -34
-20 -90 -35 l-101 -29 6 -30 c57 -286 208 -563 425 -776 218 -215 487 -356
795 -417 139 -27 435 -25 575 6 216 46 413 131 587 254 113 80 281 247 362
362 73 104 169 294 206 409 55 170 69 266 69 471 0 144 -4 212 -17 280 -41
203 -124 405 -236 572 -58 87 -234 283 -272 303 -14 8 -26 0 -62 -43z"/>
<path d="M1390 2254 c-123 -26 -132 -35 -132 -124 0 -247 298 -367 469 -188
61 63 89 172 67 255 -16 57 -250 91 -404 57z"/>
<path d="M967 1979 c-72 -95 -126 -262 -127 -391 0 -59 3 -69 25 -86 35 -28
118 -46 176 -39 28 4 72 18 100 34 231 125 160 473 -104 509 -42 6 -46 4 -70
-27z"/>
<path d="M1983 2001 c-121 -31 -206 -141 -206 -266 0 -154 122 -275 277 -275
150 0 281 152 262 304 -13 101 -94 200 -185 226 -54 16 -112 20 -148 11z"/>
<path d="M1500 1771 c-7 -15 -6 -24 6 -36 9 -9 21 -14 27 -12 18 6 31 33 24
51 -9 22 -44 20 -57 -3z"/>
<path d="M1481 1673 c-55 -47 -24 -133 48 -133 72 0 102 79 47 127 -32 27 -66
30 -95 6z"/>
<path d="M1360 1635 c-6 -8 -10 -22 -8 -32 4 -24 47 -24 62 0 9 15 7 21 -8 33
-25 18 -31 18 -46 -1z"/>
<path d="M1650 1635 c-6 -8 -10 -22 -8 -32 4 -24 47 -24 62 0 9 15 7 21 -8 33
-25 18 -31 18 -46 -1z"/>
<path d="M1500 1481 c-7 -15 -6 -24 6 -36 9 -9 21 -14 27 -12 18 6 31 33 24
51 -9 22 -44 20 -57 -3z"/>
<path d="M1090 1389 c-91 -41 -146 -117 -156 -217 -22 -209 171 -356 369 -282
102 38 166 135 167 250 0 155 -114 270 -270 270 -44 0 -80 -7 -110 -21z"/>
<path d="M1732 1384 c-199 -99 -203 -385 -6 -484 140 -69 314 -8 374 132 19
44 22 65 18 130 -4 67 -9 84 -37 125 -58 85 -130 123 -236 123 -46 0 -74 -6
-113 -26z"/>
<path d="M175 1335 c-22 -7 -33 -13 -25 -14 8 0 35 6 60 13 25 8 36 15 25 15
-11 0 -38 -6 -60 -14z"/>
</g>
</svg>
